<svg width="18" height="18" viewBox="0 0 18 18" fill="none" xmlns="http://www.w3.org/2000/svg">
<path d="M10.4417 1.92501L11.9083 4.85835C12.1083 5.26668 12.6417 5.65834 13.0917 5.73334L15.75 6.17501C17.45 6.45834 17.85 7.69168 16.625 8.90834L14.5583 10.975C14.2083 11.325 14.0167 12 14.125 12.4833L14.7167 15.0417C15.1833 17.0667 14.1083 17.85 12.3167 16.7917L9.82499 15.3167C9.37499 15.05 8.63332 15.05 8.17499 15.3167L5.68332 16.7917C3.89999 17.85 2.81665 17.0583 3.28332 15.0417L3.87499 12.4833C3.98332 12 3.79165 11.325 3.44165 10.975L1.37499 8.90834C0.158318 7.69168 0.549985 6.45834 2.24999 6.17501L4.90832 5.73334C5.34999 5.65834 5.88332 5.26668 6.08332 4.85835L7.54999 1.92501C8.34999 0.333346 9.64999 0.333346 10.4417 1.92501Z" fill="#FBBE21"/>
</svg>
